<svg width="220" height="175" viewBox="0 0 220 175" xmlns="http://www.w3.org/2000/svg">
  <defs>
    <linearGradient id="sudokuGradient" x1="0%" y1="0%" x2="100%" y2="100%">
      <stop offset="0%" style="stop-color:#4B0082;stop-opacity:1" />
      <stop offset="100%" style="stop-color:#9370DB;stop-opacity:1" />
    </linearGradient>
  </defs>
  <rect width="220" height="175" fill="url(#sudokuGradient)"/>
  <!-- Sudoku grid -->
  <rect x="75" y="45" width="70" height="70" fill="white" stroke="#333" stroke-width="2"/>
  <!-- Grid lines -->
  <line x1="98" y1="45" x2="98" y2="115" stroke="#666" stroke-width="1"/>
  <line x1="122" y1="45" x2="122" y2="115" stroke="#666" stroke-width="1"/>
  <line x1="75" y1="68" x2="145" y2="68" stroke="#666" stroke-width="1"/>
  <line x1="75" y1="92" x2="145" y2="92" stroke="#666" stroke-width="1"/>
  <!-- Bold grid lines -->
  <line x1="98.5" y1="45" x2="98.5" y2="115" stroke="#333" stroke-width="2"/>
  <line x1="121.5" y1="45" x2="121.5" y2="115" stroke="#333" stroke-width="2"/>
  <line x1="75" y1="68.5" x2="145" y2="68.5" stroke="#333" stroke-width="2"/>
  <line x1="75" y1="91.5" x2="145" y2="91.5" stroke="#333" stroke-width="2"/>
  <!-- Numbers -->
  <text x="86" y="58" text-anchor="middle" font-family="Arial" font-size="12" font-weight="bold" fill="#333">5</text>
  <text x="110" y="58" text-anchor="middle" font-family="Arial" font-size="12" font-weight="bold" fill="#333">3</text>
  <text x="134" y="58" text-anchor="middle" font-family="Arial" font-size="12" font-weight="bold" fill="#333">7</text>
  <text x="86" y="82" text-anchor="middle" font-family="Arial" font-size="12" font-weight="bold" fill="#333">6</text>
  <text x="110" y="82" text-anchor="middle" font-family="Arial" font-size="12" font-weight="bold" fill="#333">1</text>
  <text x="134" y="82" text-anchor="middle" font-family="Arial" font-size="12" font-weight="bold" fill="#333">9</text>
  <text x="86" y="106" text-anchor="middle" font-family="Arial" font-size="12" font-weight="bold" fill="#333">8</text>
  <text x="110" y="106" text-anchor="middle" font-family="Arial" font-size="12" font-weight="bold" fill="#333">2</text>
  <text x="134" y="106" text-anchor="middle" font-family="Arial" font-size="12" font-weight="bold" fill="#333">4</text>
  
  <text x="110" y="140" text-anchor="middle" font-family="Arial, sans-serif" font-size="14" font-weight="bold" fill="white">SUDOKU</text>
  <text x="110" y="155" text-anchor="middle" font-family="Arial, sans-serif" font-size="10" fill="#E6E6FA">Number Logic</text>
</svg>